  0
SECTION
  2
HEADER
  9
$ACADVER
  1
AC1009
  9
$MEASUREMENT
 70
     1
  0
ENDSEC
  0
SECTION
  2
ENTITIES
  0
LWPOLYLINE
  8
0
 62
7
 90
5
 70
1
 10
6.985000
 20
5.848438
 10
6.288063
 20
5.848438
 10
6.288063
 20
5.051563
 10
7.681938
 20
5.051563
 10
7.681938
 20
5.848438
  0
LWPOLYLINE
  8
0
 62
7
 90
5
 70
1
 10
6.985000
 20
7.648438
 10
6.288063
 20
7.648438
 10
6.288063
 20
6.851562
 10
7.681938
 20
6.851562
 10
7.681938
 20
7.648438
  0
LWPOLYLINE
  8
0
 62
7
 90
5
 70
1
 10
23.488563
 20
16.129000
 10
23.488563
 20
15.432063
 10
24.285438
 20
15.432063
 10
24.285438
 20
16.825938
 10
23.488563
 20
16.825938
  0
LWPOLYLINE
  8
0
 62
7
 90
5
 70
1
 10
21.688562
 20
16.129000
 10
21.688562
 20
15.432063
 10
22.485437
 20
15.432063
 10
22.485437
 20
16.825938
 10
21.688562
 20
16.825938
  0
LWPOLYLINE
  8
0
 62
7
 90
5
 70
1
 10
15.119438
 20
16.129000
 10
15.119438
 20
16.825938
 10
14.322563
 20
16.825938
 10
14.322563
 20
15.432063
 10
15.119438
 20
15.432063
  0
LWPOLYLINE
  8
0
 62
7
 90
5
 70
1
 10
16.919438
 20
16.129000
 10
16.919438
 20
16.825938
 10
16.122563
 20
16.825938
 10
16.122563
 20
15.432063
 10
16.919438
 20
15.432063
  0
LWPOLYLINE
  8
0
 62
7
 90
5
 70
1
 10
7.620000
 20
3.426562
 10
7.968438
 20
3.426562
 10
7.968438
 20
3.923437
 10
7.271562
 20
3.923437
 10
7.271562
 20
3.426562
  0
LWPOLYLINE
  8
0
 62
7
 90
5
 70
1
 10
7.620000
 20
2.426562
 10
7.968438
 20
2.426562
 10
7.968438
 20
2.923437
 10
7.271562
 20
2.923437
 10
7.271562
 20
2.426562
  0
LWPOLYLINE
  8
0
 62
7
 90
5
 70
1
 10
6.350000
 20
3.426562
 10
6.698437
 20
3.426562
 10
6.698437
 20
3.923437
 10
6.001562
 20
3.923437
 10
6.001562
 20
3.426562
  0
LWPOLYLINE
  8
0
 62
7
 90
5
 70
1
 10
6.350000
 20
2.426562
 10
6.698437
 20
2.426562
 10
6.698437
 20
2.923437
 10
6.001562
 20
2.923437
 10
6.001562
 20
2.426562
  0
LWPOLYLINE
  8
0
 62
7
 90
5
 70
1
 10
11.015563
 20
1.770000
 10
11.015563
 20
1.171563
 10
11.712438
 20
1.171563
 10
11.712438
 20
2.368437
 10
11.015563
 20
2.368437
  0
LWPOLYLINE
  8
0
 62
7
 90
5
 70
1
 10
12.215563
 20
1.770000
 10
12.215563
 20
1.171563
 10
12.912437
 20
1.171563
 10
12.912437
 20
2.368437
 10
12.215563
 20
2.368437
  0
LWPOLYLINE
  8
0
 62
7
 90
5
 70
1
 10
13.415563
 20
1.770000
 10
13.415563
 20
1.171563
 10
14.112437
 20
1.171563
 10
14.112437
 20
2.368437
 10
13.415563
 20
2.368437
  0
LWPOLYLINE
  8
0
 62
7
 90
5
 70
1
 10
14.615563
 20
1.770000
 10
14.615563
 20
1.171563
 10
15.312437
 20
1.171563
 10
15.312437
 20
2.368437
 10
14.615563
 20
2.368437
  0
LWPOLYLINE
  8
0
 62
7
 90
5
 70
1
 10
15.815563
 20
1.770000
 10
15.815563
 20
1.171563
 10
16.512438
 20
1.171563
 10
16.512438
 20
2.368437
 10
15.815563
 20
2.368437
  0
LWPOLYLINE
  8
0
 62
7
 90
5
 70
1
 10
17.015563
 20
1.770000
 10
17.015563
 20
1.171563
 10
17.712438
 20
1.171563
 10
17.712438
 20
2.368437
 10
17.015563
 20
2.368437
  0
LWPOLYLINE
  8
0
 62
7
 90
5
 70
1
 10
18.215563
 20
1.770000
 10
18.215563
 20
1.171563
 10
18.912437
 20
1.171563
 10
18.912437
 20
2.368437
 10
18.215563
 20
2.368437
  0
LWPOLYLINE
  8
0
 62
7
 90
5
 70
1
 10
19.415563
 20
1.770000
 10
19.415563
 20
1.171563
 10
20.112437
 20
1.171563
 10
20.112437
 20
2.368437
 10
19.415563
 20
2.368437
  0
LWPOLYLINE
  8
0
 62
7
 90
5
 70
1
 10
20.615562
 20
1.770000
 10
20.615562
 20
1.171563
 10
21.312437
 20
1.171563
 10
21.312437
 20
2.368437
 10
20.615562
 20
2.368437
  0
LWPOLYLINE
  8
0
 62
7
 90
5
 70
1
 10
21.815563
 20
1.770000
 10
21.815563
 20
1.171563
 10
22.512438
 20
1.171563
 10
22.512438
 20
2.368437
 10
21.815563
 20
2.368437
  0
LWPOLYLINE
  8
0
 62
7
 90
5
 70
1
 10
24.014000
 20
3.071562
 10
24.612437
 20
3.071562
 10
24.612437
 20
3.768438
 10
23.415563
 20
3.768438
 10
23.415563
 20
3.071562
  0
LWPOLYLINE
  8
0
 62
7
 90
5
 70
1
 10
24.014000
 20
4.271562
 10
24.612437
 20
4.271562
 10
24.612437
 20
4.968438
 10
23.415563
 20
4.968438
 10
23.415563
 20
4.271562
  0
LWPOLYLINE
  8
0
 62
7
 90
5
 70
1
 10
24.014000
 20
5.471563
 10
24.612437
 20
5.471563
 10
24.612437
 20
6.168438
 10
23.415563
 20
6.168438
 10
23.415563
 20
5.471563
  0
LWPOLYLINE
  8
0
 62
7
 90
5
 70
1
 10
24.014000
 20
6.671562
 10
24.612437
 20
6.671562
 10
24.612437
 20
7.368437
 10
23.415563
 20
7.368437
 10
23.415563
 20
6.671562
  0
LWPOLYLINE
  8
0
 62
7
 90
5
 70
1
 10
24.014000
 20
7.871563
 10
24.612437
 20
7.871563
 10
24.612437
 20
8.568437
 10
23.415563
 20
8.568437
 10
23.415563
 20
7.871563
  0
LWPOLYLINE
  8
0
 62
7
 90
5
 70
1
 10
24.014000
 20
9.071563
 10
24.612437
 20
9.071563
 10
24.612437
 20
9.768437
 10
23.415563
 20
9.768437
 10
23.415563
 20
9.071563
  0
LWPOLYLINE
  8
0
 62
7
 90
5
 70
1
 10
24.014000
 20
10.271562
 10
24.612437
 20
10.271562
 10
24.612437
 20
10.968437
 10
23.415563
 20
10.968437
 10
23.415563
 20
10.271562
  0
LWPOLYLINE
  8
0
 62
7
 90
5
 70
1
 10
24.014000
 20
11.471563
 10
24.612437
 20
11.471563
 10
24.612437
 20
12.168437
 10
23.415563
 20
12.168437
 10
23.415563
 20
11.471563
  0
LWPOLYLINE
  8
0
 62
7
 90
5
 70
1
 10
22.512438
 20
13.470000
 10
22.512438
 20
14.068437
 10
21.815563
 20
14.068437
 10
21.815563
 20
12.871563
 10
22.512438
 20
12.871563
  0
LWPOLYLINE
  8
0
 62
7
 90
5
 70
1
 10
21.312437
 20
13.470000
 10
21.312437
 20
14.068437
 10
20.615562
 20
14.068437
 10
20.615562
 20
12.871563
 10
21.312437
 20
12.871563
  0
LWPOLYLINE
  8
0
 62
7
 90
5
 70
1
 10
20.112437
 20
13.470000
 10
20.112437
 20
14.068437
 10
19.415563
 20
14.068437
 10
19.415563
 20
12.871563
 10
20.112437
 20
12.871563
  0
LWPOLYLINE
  8
0
 62
7
 90
5
 70
1
 10
18.912437
 20
13.470000
 10
18.912437
 20
14.068437
 10
18.215563
 20
14.068437
 10
18.215563
 20
12.871563
 10
18.912437
 20
12.871563
  0
LWPOLYLINE
  8
0
 62
7
 90
5
 70
1
 10
17.712438
 20
13.470000
 10
17.712438
 20
14.068437
 10
17.015563
 20
14.068437
 10
17.015563
 20
12.871563
 10
17.712438
 20
12.871563
  0
LWPOLYLINE
  8
0
 62
7
 90
5
 70
1
 10
16.512438
 20
13.470000
 10
16.512438
 20
14.068437
 10
15.815563
 20
14.068437
 10
15.815563
 20
12.871563
 10
16.512438
 20
12.871563
  0
LWPOLYLINE
  8
0
 62
7
 90
5
 70
1
 10
15.312437
 20
13.470000
 10
15.312437
 20
14.068437
 10
14.615563
 20
14.068437
 10
14.615563
 20
12.871563
 10
15.312437
 20
12.871563
  0
LWPOLYLINE
  8
0
 62
7
 90
5
 70
1
 10
14.112437
 20
13.470000
 10
14.112437
 20
14.068437
 10
13.415563
 20
14.068437
 10
13.415563
 20
12.871563
 10
14.112437
 20
12.871563
  0
LWPOLYLINE
  8
0
 62
7
 90
5
 70
1
 10
12.912437
 20
13.470000
 10
12.912437
 20
14.068437
 10
12.215563
 20
14.068437
 10
12.215563
 20
12.871563
 10
12.912437
 20
12.871563
  0
LWPOLYLINE
  8
0
 62
7
 90
5
 70
1
 10
11.712438
 20
13.470000
 10
11.712438
 20
14.068437
 10
11.015563
 20
14.068437
 10
11.015563
 20
12.871563
 10
11.712438
 20
12.871563
  0
LWPOLYLINE
  8
0
 62
7
 90
5
 70
1
 10
9.514000
 20
12.168437
 10
8.915563
 20
12.168437
 10
8.915563
 20
11.471563
 10
10.112437
 20
11.471563
 10
10.112437
 20
12.168437
  0
LWPOLYLINE
  8
0
 62
7
 90
5
 70
1
 10
9.514000
 20
10.968437
 10
8.915563
 20
10.968437
 10
8.915563
 20
10.271562
 10
10.112437
 20
10.271562
 10
10.112437
 20
10.968437
  0
LWPOLYLINE
  8
0
 62
7
 90
5
 70
1
 10
9.514000
 20
9.768437
 10
8.915563
 20
9.768437
 10
8.915563
 20
9.071563
 10
10.112437
 20
9.071563
 10
10.112437
 20
9.768437
  0
LWPOLYLINE
  8
0
 62
7
 90
5
 70
1
 10
9.514000
 20
8.568437
 10
8.915563
 20
8.568437
 10
8.915563
 20
7.871563
 10
10.112437
 20
7.871563
 10
10.112437
 20
8.568437
  0
LWPOLYLINE
  8
0
 62
7
 90
5
 70
1
 10
9.514000
 20
7.368437
 10
8.915563
 20
7.368437
 10
8.915563
 20
6.671562
 10
10.112437
 20
6.671562
 10
10.112437
 20
7.368437
  0
LWPOLYLINE
  8
0
 62
7
 90
5
 70
1
 10
9.514000
 20
6.168438
 10
8.915563
 20
6.168438
 10
8.915563
 20
5.471563
 10
10.112437
 20
5.471563
 10
10.112437
 20
6.168438
  0
LWPOLYLINE
  8
0
 62
7
 90
5
 70
1
 10
9.514000
 20
4.968438
 10
8.915563
 20
4.968438
 10
8.915563
 20
4.271562
 10
10.112437
 20
4.271562
 10
10.112437
 20
4.968438
  0
LWPOLYLINE
  8
0
 62
7
 90
5
 70
1
 10
9.514000
 20
3.768438
 10
8.915563
 20
3.768438
 10
8.915563
 20
3.071562
 10
10.112437
 20
3.071562
 10
10.112437
 20
3.768438
  0
LWPOLYLINE
  8
0
 62
7
 90
5
 70
1
 10
13.164000
 20
6.668437
 10
12.215562
 20
6.668437
 10
12.215562
 20
4.271562
 10
14.112438
 20
4.271562
 10
14.112438
 20
6.668437
  0
LWPOLYLINE
  8
0
 62
7
 90
5
 70
1
 10
16.764000
 20
6.668437
 10
15.815562
 20
6.668437
 10
15.815562
 20
4.271562
 10
17.712438
 20
4.271562
 10
17.712438
 20
6.668437
  0
LWPOLYLINE
  8
0
 62
7
 90
5
 70
1
 10
20.364000
 20
6.668437
 10
19.415563
 20
6.668437
 10
19.415563
 20
4.271562
 10
21.312438
 20
4.271562
 10
21.312438
 20
6.668437
  0
LWPOLYLINE
  8
0
 62
7
 90
5
 70
1
 10
13.164000
 20
10.968438
 10
12.215562
 20
10.968438
 10
12.215562
 20
8.571562
 10
14.112438
 20
8.571562
 10
14.112438
 20
10.968438
  0
LWPOLYLINE
  8
0
 62
7
 90
5
 70
1
 10
16.764000
 20
10.968438
 10
15.815562
 20
10.968438
 10
15.815562
 20
8.571562
 10
17.712438
 20
8.571562
 10
17.712438
 20
10.968438
  0
LWPOLYLINE
  8
0
 62
7
 90
5
 70
1
 10
20.364000
 20
10.968438
 10
19.415563
 20
10.968438
 10
19.415563
 20
8.571562
 10
21.312438
 20
8.571562
 10
21.312438
 20
10.968438
  0
LWPOLYLINE
  8
0
 62
7
 90
5
 70
1
 10
9.514000
 20
2.368437
 10
8.915563
 20
2.368437
 10
8.915563
 20
1.171563
 10
10.112437
 20
1.171563
 10
10.112437
 20
2.368437
  0
LWPOLYLINE
  8
0
 62
7
 90
5
 70
1
 10
24.014000
 20
2.368437
 10
23.415563
 20
2.368437
 10
23.415563
 20
1.171563
 10
24.612437
 20
1.171563
 10
24.612437
 20
2.368437
  0
LWPOLYLINE
  8
0
 62
7
 90
5
 70
1
 10
24.014000
 20
14.068437
 10
23.415563
 20
14.068437
 10
23.415563
 20
12.871563
 10
24.612437
 20
12.871563
 10
24.612437
 20
14.068437
  0
LWPOLYLINE
  8
0
 62
7
 90
5
 70
1
 10
9.514000
 20
14.068437
 10
8.915563
 20
14.068437
 10
8.915563
 20
12.871563
 10
10.112437
 20
12.871563
 10
10.112437
 20
14.068437
  0
ENDSEC
  0
EOF
